<svg width="72" height="78" viewBox="0 0 72 78" fill="none" xmlns="http://www.w3.org/2000/svg">
<circle cx="54" cy="24" r="18" fill="url(#paint0_linear_537_36578)"/>
<path fill-rule="evenodd" clip-rule="evenodd" d="M13.5 66H34.5H36H55.5C64.6127 66 72 58.6127 72 49.5C72 40.3873 64.6127 33 55.5 33C55.1382 33 54.7791 33.0116 54.4231 33.0346C50.6566 25.879 43.1481 21 34.5 21C23.6003 21 14.5107 28.7504 12.4418 39.0409C5.48057 39.5806 0 45.4003 0 52.5C0 59.9558 6.04416 66 13.5 66Z" fill="#E7F1FF"/>
<path fill-rule="evenodd" clip-rule="evenodd" d="M13.5 66H34.5H36H55.5C64.6127 66 72 58.6127 72 49.5C72 40.3873 64.6127 33 55.5 33C55.1382 33 54.7791 33.0116 54.4231 33.0346C50.6566 25.879 43.1481 21 34.5 21C23.6003 21 14.5107 28.7504 12.4418 39.0409C5.48057 39.5806 0 45.4003 0 52.5C0 59.9558 6.04416 66 13.5 66Z" fill="url(#paint1_linear_537_36578)"/>
<path fill-rule="evenodd" clip-rule="evenodd" d="M13.5 66H34.5H36H55.5C64.6127 66 72 58.6127 72 49.5C72 40.3873 64.6127 33 55.5 33C55.1382 33 54.7791 33.0116 54.4231 33.0346C50.6566 25.879 43.1481 21 34.5 21C23.6003 21 14.5107 28.7504 12.4418 39.0409C5.48057 39.5806 0 45.4003 0 52.5C0 59.9558 6.04416 66 13.5 66Z" fill="url(#paint2_linear_537_36578)"/>
<path d="M0 52.5C0 45.0442 6.04416 39 13.5 39H18C27.9411 39 36 47.0589 36 57V66H13.5C6.04416 66 0 59.9558 0 52.5Z" fill="url(#paint3_radial_537_36578)"/>
<path d="M12 43.5C12 31.0736 22.0736 21 34.5 21C46.9264 21 57 31.0736 57 43.5C57 55.9264 46.9264 66 34.5 66C22.0736 66 12 55.9264 12 43.5Z" fill="url(#paint4_radial_537_36578)"/>
<circle cx="55.5" cy="49.5" r="16.5" fill="url(#paint5_radial_537_36578)"/>
<path fill-rule="evenodd" clip-rule="evenodd" d="M45 67.5002V47.1006C45 45.2254 47.2709 44.2904 48.5912 45.6219L62.8413 59.9931C64.7903 61.8994 66 64.5585 66 67.5002C66 73.2992 61.299 78.0002 55.5 78.0002C49.701 78.0002 45 73.2992 45 67.5002Z" fill="#C4C4C4"/>
<path fill-rule="evenodd" clip-rule="evenodd" d="M45 67.5002V47.1006C45 45.2254 47.2709 44.2904 48.5912 45.6219L62.8413 59.9931C64.7903 61.8994 66 64.5585 66 67.5002C66 73.2992 61.299 78.0002 55.5 78.0002C49.701 78.0002 45 73.2992 45 67.5002Z" fill="url(#paint6_linear_537_36578)"/>
<path fill-rule="evenodd" clip-rule="evenodd" d="M18 65.4409V49.3306C18 47.4554 20.2709 46.5204 21.5912 47.852L32.5983 58.9527C34.6711 60.6015 36 63.1456 36 66C36 70.9706 31.9706 75 27 75C22.0294 75 18 70.9706 18 66C18 65.8098 18.0059 65.621 18.0175 65.4337L18 65.4409Z" fill="#C4C4C4"/>
<path fill-rule="evenodd" clip-rule="evenodd" d="M18 65.4409V49.3306C18 47.4554 20.2709 46.5204 21.5912 47.852L32.5983 58.9527C34.6711 60.6015 36 63.1456 36 66C36 70.9706 31.9706 75 27 75C22.0294 75 18 70.9706 18 66C18 65.8098 18.0059 65.621 18.0175 65.4337L18 65.4409Z" fill="url(#paint7_linear_537_36578)"/>
<defs>
<linearGradient id="paint0_linear_537_36578" x1="62.1" y1="31.8" x2="32.7478" y2="-4.02444" gradientUnits="userSpaceOnUse">
<stop stop-color="#EF6D0F"/>
<stop offset="0.56298" stop-color="#EEB82E"/>
<stop offset="1" stop-color="#FEB649" stop-opacity="0.78"/>
</linearGradient>
<linearGradient id="paint1_linear_537_36578" x1="22.5" y1="31.5" x2="36" y2="66" gradientUnits="userSpaceOnUse">
<stop stop-color="#C6D8F5"/>
<stop offset="1" stop-color="#89AFD1" stop-opacity="0"/>
</linearGradient>
<linearGradient id="paint2_linear_537_36578" x1="32.0998" y1="67.5925" x2="31.1538" y2="21" gradientUnits="userSpaceOnUse">
<stop stop-color="#547DDA"/>
<stop offset="0.257422" stop-color="#93C2FF" stop-opacity="0"/>
</linearGradient>
<radialGradient id="paint3_radial_537_36578" cx="0" cy="0" r="1" gradientUnits="userSpaceOnUse" gradientTransform="translate(19.5 66) rotate(-127.875) scale(28.5044 32.9871)">
<stop offset="0.683784" stop-color="#8FABDD" stop-opacity="0"/>
<stop offset="1" stop-color="#5582D3"/>
</radialGradient>
<radialGradient id="paint4_radial_537_36578" cx="0" cy="0" r="1" gradientUnits="userSpaceOnUse" gradientTransform="translate(34.5 61.5) rotate(-90) scale(40.5)">
<stop offset="0.598765" stop-color="#C7DFFF" stop-opacity="0"/>
<stop offset="1" stop-color="#6B97E6"/>
</radialGradient>
<radialGradient id="paint5_radial_537_36578" cx="0" cy="0" r="1" gradientUnits="userSpaceOnUse" gradientTransform="translate(46.7 61.6) rotate(-56.3099) scale(31.7288)">
<stop offset="0.47771" stop-color="#8FABDD" stop-opacity="0"/>
<stop offset="1" stop-color="#5582D3"/>
</radialGradient>
<linearGradient id="paint6_linear_537_36578" x1="60.7509" y1="75.8232" x2="41.7826" y2="54.9185" gradientUnits="userSpaceOnUse">
<stop stop-color="#0066FF"/>
<stop offset="1" stop-color="#65ACFF"/>
</linearGradient>
<linearGradient id="paint7_linear_537_36578" x1="31.5008" y1="73.1681" x2="15.5695" y2="55.2846" gradientUnits="userSpaceOnUse">
<stop stop-color="#0066FF"/>
<stop offset="1" stop-color="#65ACFF"/>
</linearGradient>
</defs>
</svg>
